<mxfile host="app.diagrams.net" agent="Mozilla/5.0 (Windows NT 10.0; Win64; x64) AppleWebKit/537.36 (KHTML, like Gecko) Chrome/133.0.0.0 Safari/537.36 Edg/133.0.0.0" version="26.0.16">
  <diagram name="第 1 页" id="A5arc3K6DWoqKsejv3OW">
    <mxGraphModel dx="1826" dy="781" grid="1" gridSize="10" guides="1" tooltips="1" connect="1" arrows="1" fold="1" page="0" pageScale="1" pageWidth="827" pageHeight="1169" math="0" shadow="0">
      <root>
        <mxCell id="0" />
        <mxCell id="1" parent="0" />
        <mxCell id="rZPklnPWn8Zfk5MZy2Hi-1" value="" style="rounded=1;whiteSpace=wrap;html=1;shadow=1;" parent="1" vertex="1">
          <mxGeometry x="17" y="205" width="120" height="60" as="geometry" />
        </mxCell>
        <mxCell id="rZPklnPWn8Zfk5MZy2Hi-2" value="" style="rounded=1;whiteSpace=wrap;html=1;shadow=1;" parent="1" vertex="1">
          <mxGeometry x="11" y="211" width="120" height="60" as="geometry" />
        </mxCell>
        <mxCell id="rZPklnPWn8Zfk5MZy2Hi-3" value="" style="rounded=1;whiteSpace=wrap;html=1;shadow=1;" parent="1" vertex="1">
          <mxGeometry x="4" y="217" width="120" height="60" as="geometry" />
        </mxCell>
        <mxCell id="rZPklnPWn8Zfk5MZy2Hi-4" value="Text" style="text;html=1;align=center;verticalAlign=middle;resizable=0;points=[];autosize=1;strokeColor=none;fillColor=none;" parent="1" vertex="1">
          <mxGeometry x="39" y="283" width="50" height="30" as="geometry" />
        </mxCell>
        <mxCell id="rZPklnPWn8Zfk5MZy2Hi-6" value="" style="rounded=0;whiteSpace=wrap;html=1;shadow=1;" parent="1" vertex="1">
          <mxGeometry x="17" y="345" width="120" height="60" as="geometry" />
        </mxCell>
        <mxCell id="rZPklnPWn8Zfk5MZy2Hi-7" value="" style="rounded=0;whiteSpace=wrap;html=1;shadow=1;" parent="1" vertex="1">
          <mxGeometry x="11" y="352" width="120" height="60" as="geometry" />
        </mxCell>
        <mxCell id="rZPklnPWn8Zfk5MZy2Hi-8" value="" style="rounded=0;whiteSpace=wrap;html=1;shadow=1;" parent="1" vertex="1">
          <mxGeometry x="3" y="359" width="120" height="60" as="geometry" />
        </mxCell>
        <mxCell id="rZPklnPWn8Zfk5MZy2Hi-9" value="Image" style="text;html=1;align=center;verticalAlign=middle;resizable=0;points=[];autosize=1;strokeColor=none;fillColor=none;" parent="1" vertex="1">
          <mxGeometry x="32" y="435" width="60" height="30" as="geometry" />
        </mxCell>
        <mxCell id="rZPklnPWn8Zfk5MZy2Hi-13" value="" style="rounded=0;orthogonalLoop=1;jettySize=auto;html=1;exitX=1;exitY=0.75;exitDx=0;exitDy=0;entryX=0;entryY=0.5;entryDx=0;entryDy=0;" parent="1" edge="1">
          <mxGeometry relative="1" as="geometry">
            <mxPoint x="137" y="247" as="sourcePoint" />
            <mxPoint x="179" y="247" as="targetPoint" />
          </mxGeometry>
        </mxCell>
        <mxCell id="rZPklnPWn8Zfk5MZy2Hi-17" value="" style="rounded=0;orthogonalLoop=1;jettySize=auto;html=1;" parent="1" source="rZPklnPWn8Zfk5MZy2Hi-10" target="rZPklnPWn8Zfk5MZy2Hi-16" edge="1">
          <mxGeometry relative="1" as="geometry" />
        </mxCell>
        <mxCell id="rZPklnPWn8Zfk5MZy2Hi-10" value="BERT" style="rounded=1;whiteSpace=wrap;html=1;" parent="1" vertex="1">
          <mxGeometry x="179" y="229" width="70" height="32" as="geometry" />
        </mxCell>
        <mxCell id="rZPklnPWn8Zfk5MZy2Hi-11" value="ResNet" style="rounded=1;whiteSpace=wrap;html=1;" parent="1" vertex="1">
          <mxGeometry x="179" y="366" width="70" height="32" as="geometry" />
        </mxCell>
        <mxCell id="rZPklnPWn8Zfk5MZy2Hi-15" value="" style="rounded=0;orthogonalLoop=1;jettySize=auto;html=1;exitX=1;exitY=0.75;exitDx=0;exitDy=0;entryX=0;entryY=0.5;entryDx=0;entryDy=0;" parent="1" edge="1">
          <mxGeometry relative="1" as="geometry">
            <mxPoint x="137" y="381.5" as="sourcePoint" />
            <mxPoint x="179" y="381.5" as="targetPoint" />
          </mxGeometry>
        </mxCell>
        <mxCell id="rZPklnPWn8Zfk5MZy2Hi-16" value="" style="html=1;whiteSpace=wrap;shape=isoCube2;backgroundOutline=1;isoAngle=15;fillColor=#dae8fc;strokeColor=#6c8ebf;" parent="1" vertex="1">
          <mxGeometry x="285" y="216" width="30" height="58" as="geometry" />
        </mxCell>
        <mxCell id="rZPklnPWn8Zfk5MZy2Hi-19" value="" style="rounded=0;orthogonalLoop=1;jettySize=auto;html=1;" parent="1" target="rZPklnPWn8Zfk5MZy2Hi-20" edge="1">
          <mxGeometry relative="1" as="geometry">
            <mxPoint x="250" y="382" as="sourcePoint" />
          </mxGeometry>
        </mxCell>
        <mxCell id="rZPklnPWn8Zfk5MZy2Hi-20" value="" style="html=1;whiteSpace=wrap;shape=isoCube2;backgroundOutline=1;isoAngle=15;fillColor=#fff2cc;strokeColor=#d6b656;" parent="1" vertex="1">
          <mxGeometry x="286" y="353" width="30" height="58" as="geometry" />
        </mxCell>
        <mxCell id="rZPklnPWn8Zfk5MZy2Hi-192" style="edgeStyle=orthogonalEdgeStyle;rounded=0;orthogonalLoop=1;jettySize=auto;html=1;exitX=1;exitY=0.5;exitDx=0;exitDy=0;entryX=0;entryY=0.5;entryDx=0;entryDy=0;" parent="1" source="rZPklnPWn8Zfk5MZy2Hi-23" target="rZPklnPWn8Zfk5MZy2Hi-190" edge="1">
          <mxGeometry relative="1" as="geometry" />
        </mxCell>
        <mxCell id="rZPklnPWn8Zfk5MZy2Hi-23" value="&lt;ol&gt;&lt;li&gt;C1&lt;/li&gt;&lt;li&gt;C2&lt;/li&gt;&lt;li&gt;C3&lt;/li&gt;&lt;li&gt;...&lt;/li&gt;&lt;/ol&gt;" style="text;strokeColor=#d79b00;fillColor=#ffe6cc;html=1;whiteSpace=wrap;verticalAlign=middle;overflow=hidden;" parent="1" vertex="1">
          <mxGeometry x="12" y="568" width="100" height="80" as="geometry" />
        </mxCell>
        <mxCell id="rZPklnPWn8Zfk5MZy2Hi-24" value="Comments" style="text;html=1;align=center;verticalAlign=middle;resizable=0;points=[];autosize=1;strokeColor=none;fillColor=none;" parent="1" vertex="1">
          <mxGeometry x="21" y="660" width="80" height="30" as="geometry" />
        </mxCell>
        <mxCell id="rZPklnPWn8Zfk5MZy2Hi-27" value="" style="group;" parent="1" vertex="1" connectable="0">
          <mxGeometry x="339" y="172" width="331" height="313" as="geometry" />
        </mxCell>
        <mxCell id="rZPklnPWn8Zfk5MZy2Hi-165" style="edgeStyle=orthogonalEdgeStyle;rounded=0;orthogonalLoop=1;jettySize=auto;html=1;exitX=1;exitY=0.25;exitDx=0;exitDy=0;" parent="rZPklnPWn8Zfk5MZy2Hi-27" source="rZPklnPWn8Zfk5MZy2Hi-25" edge="1">
          <mxGeometry relative="1" as="geometry">
            <mxPoint x="341" y="78" as="targetPoint" />
          </mxGeometry>
        </mxCell>
        <mxCell id="rZPklnPWn8Zfk5MZy2Hi-25" value="" style="whiteSpace=wrap;html=1;aspect=fixed;fillColor=#f5f5f5;fontColor=#333333;strokeColor=#666666;" parent="rZPklnPWn8Zfk5MZy2Hi-27" vertex="1">
          <mxGeometry width="313" height="313" as="geometry" />
        </mxCell>
        <mxCell id="rZPklnPWn8Zfk5MZy2Hi-26" value="" style="whiteSpace=wrap;html=1;aspect=fixed;" parent="rZPklnPWn8Zfk5MZy2Hi-27" vertex="1">
          <mxGeometry x="42.70967741935483" y="58.561290322580646" width="201.93548387096774" height="201.93548387096774" as="geometry" />
        </mxCell>
        <mxCell id="rZPklnPWn8Zfk5MZy2Hi-28" value="Multimodal Contrastive Learning Module&amp;nbsp;" style="text;html=1;align=center;verticalAlign=middle;whiteSpace=wrap;rounded=0;strokeWidth=5;" parent="rZPklnPWn8Zfk5MZy2Hi-27" vertex="1">
          <mxGeometry x="26.693548387096772" y="1.0096774193548388" width="266.93548387096774" height="30.290322580645164" as="geometry" />
        </mxCell>
        <mxCell id="rZPklnPWn8Zfk5MZy2Hi-29" value="" style="whiteSpace=wrap;html=1;aspect=fixed;fillColor=#f8cecc;strokeColor=#b85450;" parent="rZPklnPWn8Zfk5MZy2Hi-27" vertex="1">
          <mxGeometry x="74.74193548387096" y="83.80322580645162" width="20.193548387096776" height="20.193548387096776" as="geometry" />
        </mxCell>
        <mxCell id="rZPklnPWn8Zfk5MZy2Hi-32" value="" style="whiteSpace=wrap;html=1;aspect=fixed;" parent="rZPklnPWn8Zfk5MZy2Hi-27" vertex="1">
          <mxGeometry x="106.77419354838709" y="83.80322580645162" width="20.193548387096776" height="20.193548387096776" as="geometry" />
        </mxCell>
        <mxCell id="rZPklnPWn8Zfk5MZy2Hi-33" value="" style="whiteSpace=wrap;html=1;aspect=fixed;" parent="rZPklnPWn8Zfk5MZy2Hi-27" vertex="1">
          <mxGeometry x="138.8064516129032" y="83.80322580645162" width="20.193548387096776" height="20.193548387096776" as="geometry" />
        </mxCell>
        <mxCell id="rZPklnPWn8Zfk5MZy2Hi-38" value="" style="whiteSpace=wrap;html=1;aspect=fixed;" parent="rZPklnPWn8Zfk5MZy2Hi-27" vertex="1">
          <mxGeometry x="170.83870967741933" y="83.80322580645162" width="20.193548387096776" height="20.193548387096776" as="geometry" />
        </mxCell>
        <mxCell id="rZPklnPWn8Zfk5MZy2Hi-39" value="" style="whiteSpace=wrap;html=1;aspect=fixed;" parent="rZPklnPWn8Zfk5MZy2Hi-27" vertex="1">
          <mxGeometry x="202.87096774193546" y="83.80322580645162" width="20.193548387096776" height="20.193548387096776" as="geometry" />
        </mxCell>
        <mxCell id="rZPklnPWn8Zfk5MZy2Hi-42" value="" style="whiteSpace=wrap;html=1;aspect=fixed;" parent="rZPklnPWn8Zfk5MZy2Hi-27" vertex="1">
          <mxGeometry x="74.74193548387096" y="114.09354838709679" width="20.193548387096776" height="20.193548387096776" as="geometry" />
        </mxCell>
        <mxCell id="rZPklnPWn8Zfk5MZy2Hi-48" value="" style="whiteSpace=wrap;html=1;aspect=fixed;" parent="rZPklnPWn8Zfk5MZy2Hi-27" vertex="1">
          <mxGeometry x="74.74193548387096" y="144.38387096774196" width="20.193548387096776" height="20.193548387096776" as="geometry" />
        </mxCell>
        <mxCell id="rZPklnPWn8Zfk5MZy2Hi-51" value="" style="whiteSpace=wrap;html=1;aspect=fixed;" parent="rZPklnPWn8Zfk5MZy2Hi-27" vertex="1">
          <mxGeometry x="74.74193548387096" y="174.6741935483871" width="20.193548387096776" height="20.193548387096776" as="geometry" />
        </mxCell>
        <mxCell id="rZPklnPWn8Zfk5MZy2Hi-52" value="" style="whiteSpace=wrap;html=1;aspect=fixed;" parent="rZPklnPWn8Zfk5MZy2Hi-27" vertex="1">
          <mxGeometry x="74.74193548387096" y="204.96451612903226" width="20.193548387096776" height="20.193548387096776" as="geometry" />
        </mxCell>
        <mxCell id="rZPklnPWn8Zfk5MZy2Hi-55" value="" style="whiteSpace=wrap;html=1;aspect=fixed;" parent="rZPklnPWn8Zfk5MZy2Hi-27" vertex="1">
          <mxGeometry x="106.77419354838709" y="204.96451612903226" width="20.193548387096776" height="20.193548387096776" as="geometry" />
        </mxCell>
        <mxCell id="rZPklnPWn8Zfk5MZy2Hi-57" value="" style="whiteSpace=wrap;html=1;aspect=fixed;" parent="rZPklnPWn8Zfk5MZy2Hi-27" vertex="1">
          <mxGeometry x="138.8064516129032" y="204.96451612903226" width="20.193548387096776" height="20.193548387096776" as="geometry" />
        </mxCell>
        <mxCell id="rZPklnPWn8Zfk5MZy2Hi-58" value="" style="whiteSpace=wrap;html=1;aspect=fixed;" parent="rZPklnPWn8Zfk5MZy2Hi-27" vertex="1">
          <mxGeometry x="170.83870967741933" y="204.96451612903226" width="20.193548387096776" height="20.193548387096776" as="geometry" />
        </mxCell>
        <mxCell id="rZPklnPWn8Zfk5MZy2Hi-59" value="" style="whiteSpace=wrap;html=1;aspect=fixed;fillColor=#f8cecc;strokeColor=#b85450;" parent="rZPklnPWn8Zfk5MZy2Hi-27" vertex="1">
          <mxGeometry x="202.87096774193546" y="204.96451612903226" width="20.193548387096776" height="20.193548387096776" as="geometry" />
        </mxCell>
        <mxCell id="rZPklnPWn8Zfk5MZy2Hi-61" value="" style="whiteSpace=wrap;html=1;aspect=fixed;" parent="rZPklnPWn8Zfk5MZy2Hi-27" vertex="1">
          <mxGeometry x="202.87096774193546" y="174.6741935483871" width="20.193548387096776" height="20.193548387096776" as="geometry" />
        </mxCell>
        <mxCell id="rZPklnPWn8Zfk5MZy2Hi-62" value="" style="whiteSpace=wrap;html=1;aspect=fixed;" parent="rZPklnPWn8Zfk5MZy2Hi-27" vertex="1">
          <mxGeometry x="202.87096774193546" y="144.38387096774196" width="20.193548387096776" height="20.193548387096776" as="geometry" />
        </mxCell>
        <mxCell id="rZPklnPWn8Zfk5MZy2Hi-82" value="" style="whiteSpace=wrap;html=1;aspect=fixed;" parent="rZPklnPWn8Zfk5MZy2Hi-27" vertex="1">
          <mxGeometry x="202.87096774193546" y="114.09354838709679" width="20.193548387096776" height="20.193548387096776" as="geometry" />
        </mxCell>
        <mxCell id="rZPklnPWn8Zfk5MZy2Hi-83" value="" style="whiteSpace=wrap;html=1;aspect=fixed;fillColor=#f8cecc;strokeColor=#b85450;" parent="rZPklnPWn8Zfk5MZy2Hi-27" vertex="1">
          <mxGeometry x="106.77419354838709" y="114.09354838709679" width="20.193548387096776" height="20.193548387096776" as="geometry" />
        </mxCell>
        <mxCell id="rZPklnPWn8Zfk5MZy2Hi-86" value="" style="whiteSpace=wrap;html=1;aspect=fixed;" parent="rZPklnPWn8Zfk5MZy2Hi-27" vertex="1">
          <mxGeometry x="106.77419354838709" y="144.38387096774196" width="20.193548387096776" height="20.193548387096776" as="geometry" />
        </mxCell>
        <mxCell id="rZPklnPWn8Zfk5MZy2Hi-87" value="" style="whiteSpace=wrap;html=1;aspect=fixed;" parent="rZPklnPWn8Zfk5MZy2Hi-27" vertex="1">
          <mxGeometry x="106.77419354838709" y="174.6741935483871" width="20.193548387096776" height="20.193548387096776" as="geometry" />
        </mxCell>
        <mxCell id="rZPklnPWn8Zfk5MZy2Hi-88" value="" style="whiteSpace=wrap;html=1;aspect=fixed;" parent="rZPklnPWn8Zfk5MZy2Hi-27" vertex="1">
          <mxGeometry x="138.8064516129032" y="114.09354838709679" width="20.193548387096776" height="20.193548387096776" as="geometry" />
        </mxCell>
        <mxCell id="rZPklnPWn8Zfk5MZy2Hi-89" value="" style="whiteSpace=wrap;html=1;aspect=fixed;fillColor=#f8cecc;strokeColor=#b85450;" parent="rZPklnPWn8Zfk5MZy2Hi-27" vertex="1">
          <mxGeometry x="138.8064516129032" y="144.38387096774196" width="20.193548387096776" height="20.193548387096776" as="geometry" />
        </mxCell>
        <mxCell id="rZPklnPWn8Zfk5MZy2Hi-91" value="" style="whiteSpace=wrap;html=1;aspect=fixed;" parent="rZPklnPWn8Zfk5MZy2Hi-27" vertex="1">
          <mxGeometry x="138.8064516129032" y="174.6741935483871" width="20.193548387096776" height="20.193548387096776" as="geometry" />
        </mxCell>
        <mxCell id="rZPklnPWn8Zfk5MZy2Hi-118" value="" style="whiteSpace=wrap;html=1;aspect=fixed;" parent="rZPklnPWn8Zfk5MZy2Hi-27" vertex="1">
          <mxGeometry x="170.83870967741933" y="114.09354838709679" width="20.193548387096776" height="20.193548387096776" as="geometry" />
        </mxCell>
        <mxCell id="rZPklnPWn8Zfk5MZy2Hi-119" value="" style="whiteSpace=wrap;html=1;aspect=fixed;" parent="rZPklnPWn8Zfk5MZy2Hi-27" vertex="1">
          <mxGeometry x="170.83870967741933" y="144.38387096774196" width="20.193548387096776" height="20.193548387096776" as="geometry" />
        </mxCell>
        <mxCell id="rZPklnPWn8Zfk5MZy2Hi-149" value="" style="whiteSpace=wrap;html=1;aspect=fixed;fillColor=#f8cecc;strokeColor=#b85450;" parent="rZPklnPWn8Zfk5MZy2Hi-27" vertex="1">
          <mxGeometry x="170.83870967741933" y="174.6741935483871" width="20.193548387096776" height="20.193548387096776" as="geometry" />
        </mxCell>
        <mxCell id="rZPklnPWn8Zfk5MZy2Hi-155" value="" style="whiteSpace=wrap;html=1;aspect=fixed;fillColor=#f8cecc;strokeColor=#b85450;" parent="rZPklnPWn8Zfk5MZy2Hi-27" vertex="1">
          <mxGeometry x="202.87096774193546" y="275.641935483871" width="20.193548387096776" height="20.193548387096776" as="geometry" />
        </mxCell>
        <mxCell id="rZPklnPWn8Zfk5MZy2Hi-156" value="&lt;font style=&quot;font-size: 9px;&quot;&gt;Positive Pairs&lt;/font&gt;" style="text;html=1;align=center;verticalAlign=middle;whiteSpace=wrap;rounded=0;" parent="rZPklnPWn8Zfk5MZy2Hi-27" vertex="1">
          <mxGeometry x="229.56451612903223" y="270.5935483870968" width="64.06451612903226" height="30.290322580645164" as="geometry" />
        </mxCell>
        <mxCell id="rZPklnPWn8Zfk5MZy2Hi-157" value="" style="rounded=0;orthogonalLoop=1;jettySize=auto;html=1;exitX=1;exitY=0.75;exitDx=0;exitDy=0;" parent="rZPklnPWn8Zfk5MZy2Hi-27" edge="1">
          <mxGeometry relative="1" as="geometry">
            <mxPoint x="312.258064516129" y="297.2548387096774" as="sourcePoint" />
            <mxPoint x="334.6806451612903" y="297.2548387096774" as="targetPoint" />
          </mxGeometry>
        </mxCell>
        <mxCell id="rZPklnPWn8Zfk5MZy2Hi-150" style="edgeStyle=orthogonalEdgeStyle;rounded=0;orthogonalLoop=1;jettySize=auto;html=1;exitX=1;exitY=0.5;exitDx=0;exitDy=0;exitPerimeter=0;" parent="1" source="rZPklnPWn8Zfk5MZy2Hi-16" edge="1">
          <mxGeometry relative="1" as="geometry">
            <mxPoint x="379" y="245" as="targetPoint" />
          </mxGeometry>
        </mxCell>
        <mxCell id="rZPklnPWn8Zfk5MZy2Hi-152" style="edgeStyle=orthogonalEdgeStyle;rounded=0;orthogonalLoop=1;jettySize=auto;html=1;exitX=1;exitY=0.5;exitDx=0;exitDy=0;exitPerimeter=0;" parent="1" source="rZPklnPWn8Zfk5MZy2Hi-20" edge="1">
          <mxGeometry relative="1" as="geometry">
            <mxPoint x="379" y="382" as="targetPoint" />
          </mxGeometry>
        </mxCell>
        <mxCell id="rZPklnPWn8Zfk5MZy2Hi-177" style="edgeStyle=orthogonalEdgeStyle;rounded=0;orthogonalLoop=1;jettySize=auto;html=1;exitX=1;exitY=0.5;exitDx=0;exitDy=0;exitPerimeter=0;entryX=-0.004;entryY=0.069;entryDx=0;entryDy=0;entryPerimeter=0;" parent="1" target="rZPklnPWn8Zfk5MZy2Hi-173" edge="1">
          <mxGeometry relative="1" as="geometry">
            <mxPoint x="741" y="248" as="targetPoint" />
            <mxPoint x="711" y="248" as="sourcePoint" />
          </mxGeometry>
        </mxCell>
        <mxCell id="rZPklnPWn8Zfk5MZy2Hi-161" value="" style="html=1;whiteSpace=wrap;shape=isoCube2;backgroundOutline=1;isoAngle=15;fillColor=#dae8fc;strokeColor=#6c8ebf;" parent="1" vertex="1">
          <mxGeometry x="680" y="219" width="30" height="58" as="geometry" />
        </mxCell>
        <mxCell id="rZPklnPWn8Zfk5MZy2Hi-162" value="" style="html=1;whiteSpace=wrap;shape=isoCube2;backgroundOutline=1;isoAngle=15;fillColor=#fff2cc;strokeColor=#d6b656;" parent="1" vertex="1">
          <mxGeometry x="680" y="369" width="30" height="58" as="geometry" />
        </mxCell>
        <mxCell id="rZPklnPWn8Zfk5MZy2Hi-172" style="edgeStyle=orthogonalEdgeStyle;rounded=0;orthogonalLoop=1;jettySize=auto;html=1;exitX=1;exitY=0.25;exitDx=0;exitDy=0;" parent="1" edge="1">
          <mxGeometry relative="1" as="geometry">
            <mxPoint x="681" y="398" as="targetPoint" />
            <mxPoint x="653" y="398" as="sourcePoint" />
          </mxGeometry>
        </mxCell>
        <mxCell id="rZPklnPWn8Zfk5MZy2Hi-189" style="edgeStyle=orthogonalEdgeStyle;rounded=0;orthogonalLoop=1;jettySize=auto;html=1;exitX=1;exitY=0.5;exitDx=0;exitDy=0;" parent="1" source="rZPklnPWn8Zfk5MZy2Hi-173" edge="1">
          <mxGeometry relative="1" as="geometry">
            <mxPoint x="951" y="321" as="targetPoint" />
          </mxGeometry>
        </mxCell>
        <mxCell id="rZPklnPWn8Zfk5MZy2Hi-173" value="Co-Attention &amp;amp; Fusion" style="whiteSpace=wrap;html=1;aspect=fixed;fillColor=#f5f5f5;fontColor=#333333;strokeColor=#666666;" parent="1" vertex="1">
          <mxGeometry x="750" y="237" width="168" height="168" as="geometry" />
        </mxCell>
        <mxCell id="rZPklnPWn8Zfk5MZy2Hi-178" style="edgeStyle=orthogonalEdgeStyle;rounded=0;orthogonalLoop=1;jettySize=auto;html=1;exitX=1;exitY=0.5;exitDx=0;exitDy=0;exitPerimeter=0;entryX=0.001;entryY=0.96;entryDx=0;entryDy=0;entryPerimeter=0;" parent="1" source="rZPklnPWn8Zfk5MZy2Hi-162" target="rZPklnPWn8Zfk5MZy2Hi-173" edge="1">
          <mxGeometry relative="1" as="geometry" />
        </mxCell>
        <mxCell id="rZPklnPWn8Zfk5MZy2Hi-443" style="edgeStyle=orthogonalEdgeStyle;rounded=0;orthogonalLoop=1;jettySize=auto;html=1;entryX=0;entryY=0.5;entryDx=0;entryDy=0;" parent="1" source="rZPklnPWn8Zfk5MZy2Hi-179" target="rZPklnPWn8Zfk5MZy2Hi-429" edge="1">
          <mxGeometry relative="1" as="geometry" />
        </mxCell>
        <mxCell id="rZPklnPWn8Zfk5MZy2Hi-179" value="" style="html=1;whiteSpace=wrap;shape=isoCube2;backgroundOutline=1;isoAngle=15;fillColor=#C0FFF5;strokeColor=#6c8ebf;" parent="1" vertex="1">
          <mxGeometry x="950" y="287" width="30" height="58" as="geometry" />
        </mxCell>
        <mxCell id="rZPklnPWn8Zfk5MZy2Hi-190" value="BERT" style="rounded=1;whiteSpace=wrap;html=1;" parent="1" vertex="1">
          <mxGeometry x="179" y="592" width="70" height="32" as="geometry" />
        </mxCell>
        <mxCell id="rZPklnPWn8Zfk5MZy2Hi-191" value="" style="rounded=0;orthogonalLoop=1;jettySize=auto;html=1;" parent="1" edge="1">
          <mxGeometry relative="1" as="geometry">
            <mxPoint x="250" y="608" as="sourcePoint" />
            <mxPoint x="286" y="608" as="targetPoint" />
          </mxGeometry>
        </mxCell>
        <mxCell id="rZPklnPWn8Zfk5MZy2Hi-193" value="" style="whiteSpace=wrap;html=1;aspect=fixed;fillColor=#ffe6cc;strokeColor=#d79b00;" parent="1" vertex="1">
          <mxGeometry x="289.90193548387094" y="563.0045161290323" width="20.193548387096776" height="20.193548387096776" as="geometry" />
        </mxCell>
        <mxCell id="rZPklnPWn8Zfk5MZy2Hi-196" value="" style="whiteSpace=wrap;html=1;aspect=fixed;" parent="1" vertex="1">
          <mxGeometry x="289.90193548387094" y="587.0045161290323" width="20.193548387096776" height="20.193548387096776" as="geometry" />
        </mxCell>
        <mxCell id="rZPklnPWn8Zfk5MZy2Hi-197" value="" style="whiteSpace=wrap;html=1;aspect=fixed;fillColor=#ffe6cc;strokeColor=#d79b00;" parent="1" vertex="1">
          <mxGeometry x="289.90193548387094" y="611.1945161290323" width="20.193548387096776" height="20.193548387096776" as="geometry" />
        </mxCell>
        <mxCell id="rZPklnPWn8Zfk5MZy2Hi-198" value="" style="whiteSpace=wrap;html=1;aspect=fixed;" parent="1" vertex="1">
          <mxGeometry x="289.90193548387094" y="634.8045161290323" width="20.193548387096776" height="20.193548387096776" as="geometry" />
        </mxCell>
        <mxCell id="rZPklnPWn8Zfk5MZy2Hi-202" value="" style="rounded=0;orthogonalLoop=1;jettySize=auto;html=1;" parent="1" edge="1">
          <mxGeometry relative="1" as="geometry">
            <mxPoint x="316" y="609" as="sourcePoint" />
            <mxPoint x="344" y="609" as="targetPoint" />
          </mxGeometry>
        </mxCell>
        <mxCell id="rZPklnPWn8Zfk5MZy2Hi-236" style="edgeStyle=orthogonalEdgeStyle;rounded=0;orthogonalLoop=1;jettySize=auto;html=1;exitX=1;exitY=0.5;exitDx=0;exitDy=0;" parent="1" source="rZPklnPWn8Zfk5MZy2Hi-222" edge="1">
          <mxGeometry relative="1" as="geometry">
            <mxPoint x="950" y="618" as="targetPoint" />
          </mxGeometry>
        </mxCell>
        <mxCell id="rZPklnPWn8Zfk5MZy2Hi-222" value="Weighted Combination" style="whiteSpace=wrap;html=1;aspect=fixed;fillColor=#f5f5f5;fontColor=#333333;strokeColor=#666666;" parent="1" vertex="1">
          <mxGeometry x="750" y="533" width="170" height="170" as="geometry" />
        </mxCell>
        <mxCell id="rZPklnPWn8Zfk5MZy2Hi-223" value="" style="whiteSpace=wrap;html=1;aspect=fixed;fillColor=#ffe6cc;strokeColor=#d79b00;" parent="1" vertex="1">
          <mxGeometry x="687.901935483871" y="573.0045161290323" width="20.193548387096776" height="20.193548387096776" as="geometry" />
        </mxCell>
        <mxCell id="rZPklnPWn8Zfk5MZy2Hi-224" value="" style="whiteSpace=wrap;html=1;aspect=fixed;" parent="1" vertex="1">
          <mxGeometry x="687.901935483871" y="597.0045161290323" width="20.193548387096776" height="20.193548387096776" as="geometry" />
        </mxCell>
        <mxCell id="rZPklnPWn8Zfk5MZy2Hi-225" value="" style="whiteSpace=wrap;html=1;aspect=fixed;fillColor=#ffe6cc;strokeColor=#d79b00;" parent="1" vertex="1">
          <mxGeometry x="687.901935483871" y="621.1945161290323" width="20.193548387096776" height="20.193548387096776" as="geometry" />
        </mxCell>
        <mxCell id="rZPklnPWn8Zfk5MZy2Hi-226" value="" style="whiteSpace=wrap;html=1;aspect=fixed;" parent="1" vertex="1">
          <mxGeometry x="687.901935483871" y="644.8045161290323" width="20.193548387096776" height="20.193548387096776" as="geometry" />
        </mxCell>
        <mxCell id="rZPklnPWn8Zfk5MZy2Hi-231" value="" style="rounded=0;orthogonalLoop=1;jettySize=auto;html=1;" parent="1" edge="1">
          <mxGeometry relative="1" as="geometry">
            <mxPoint x="659" y="617.2" as="sourcePoint" />
            <mxPoint x="682" y="617.2" as="targetPoint" />
          </mxGeometry>
        </mxCell>
        <mxCell id="rZPklnPWn8Zfk5MZy2Hi-232" value="" style="rounded=0;orthogonalLoop=1;jettySize=auto;html=1;" parent="1" edge="1">
          <mxGeometry relative="1" as="geometry">
            <mxPoint x="712" y="619.2" as="sourcePoint" />
            <mxPoint x="748" y="619.2" as="targetPoint" />
          </mxGeometry>
        </mxCell>
        <mxCell id="rZPklnPWn8Zfk5MZy2Hi-442" style="edgeStyle=orthogonalEdgeStyle;rounded=0;orthogonalLoop=1;jettySize=auto;html=1;exitX=1;exitY=0.5;exitDx=0;exitDy=0;exitPerimeter=0;" parent="1" source="rZPklnPWn8Zfk5MZy2Hi-234" edge="1">
          <mxGeometry relative="1" as="geometry">
            <mxPoint x="1090" y="619" as="targetPoint" />
          </mxGeometry>
        </mxCell>
        <mxCell id="rZPklnPWn8Zfk5MZy2Hi-234" value="" style="html=1;whiteSpace=wrap;shape=isoCube2;backgroundOutline=1;isoAngle=15;fillColor=light-dark(#D4FFD8,#002A22);strokeColor=#6c8ebf;" parent="1" vertex="1">
          <mxGeometry x="950" y="590" width="30" height="58" as="geometry" />
        </mxCell>
        <mxCell id="rZPklnPWn8Zfk5MZy2Hi-160" value="L&lt;sub&gt;&lt;font style=&quot;font-size: 8px;&quot;&gt;contrast&lt;/font&gt;&lt;/sub&gt;" style="text;html=1;align=center;verticalAlign=middle;whiteSpace=wrap;rounded=0;" parent="1" vertex="1">
          <mxGeometry x="680" y="455" width="39" height="30" as="geometry" />
        </mxCell>
        <mxCell id="rZPklnPWn8Zfk5MZy2Hi-239" value="" style="rounded=0;orthogonalLoop=1;jettySize=auto;html=1;exitX=1;exitY=0.75;exitDx=0;exitDy=0;" parent="1" edge="1">
          <mxGeometry relative="1" as="geometry">
            <mxPoint x="659.258064516129" y="708.2548387096774" as="sourcePoint" />
            <mxPoint x="681.6806451612903" y="708.2548387096774" as="targetPoint" />
          </mxGeometry>
        </mxCell>
        <mxCell id="rZPklnPWn8Zfk5MZy2Hi-240" value="L&lt;span style=&quot;font-size: 8px;&quot;&gt;bias&lt;/span&gt;" style="text;html=1;align=center;verticalAlign=middle;whiteSpace=wrap;rounded=0;" parent="1" vertex="1">
          <mxGeometry x="680" y="695" width="39" height="30" as="geometry" />
        </mxCell>
        <mxCell id="rZPklnPWn8Zfk5MZy2Hi-396" value="" style="group" parent="1" vertex="1" connectable="0">
          <mxGeometry x="240" y="772" width="780" height="240" as="geometry" />
        </mxCell>
        <mxCell id="rZPklnPWn8Zfk5MZy2Hi-295" value="" style="rounded=0;whiteSpace=wrap;html=1;fillColor=#f5f5f5;fontColor=#333333;strokeColor=#666666;flipH=1;" parent="rZPklnPWn8Zfk5MZy2Hi-396" vertex="1">
          <mxGeometry width="680" height="220" as="geometry" />
        </mxCell>
        <mxCell id="rZPklnPWn8Zfk5MZy2Hi-372" style="edgeStyle=orthogonalEdgeStyle;rounded=0;orthogonalLoop=1;jettySize=auto;html=1;exitX=0.5;exitY=0;exitDx=0;exitDy=0;entryX=0.5;entryY=1;entryDx=0;entryDy=0;" parent="rZPklnPWn8Zfk5MZy2Hi-396" source="rZPklnPWn8Zfk5MZy2Hi-373" target="rZPklnPWn8Zfk5MZy2Hi-384" edge="1">
          <mxGeometry relative="1" as="geometry" />
        </mxCell>
        <mxCell id="X0D2-6L0qY5ZADhevOa7-4" style="edgeStyle=orthogonalEdgeStyle;rounded=0;orthogonalLoop=1;jettySize=auto;html=1;exitX=0.5;exitY=0;exitDx=0;exitDy=0;entryX=0;entryY=0.5;entryDx=0;entryDy=0;" edge="1" parent="rZPklnPWn8Zfk5MZy2Hi-396" source="rZPklnPWn8Zfk5MZy2Hi-373" target="rZPklnPWn8Zfk5MZy2Hi-376">
          <mxGeometry relative="1" as="geometry">
            <Array as="points">
              <mxPoint x="138" y="78" />
              <mxPoint x="218" y="78" />
              <mxPoint x="218" y="110" />
            </Array>
          </mxGeometry>
        </mxCell>
        <mxCell id="rZPklnPWn8Zfk5MZy2Hi-373" value="A" style="rounded=0;whiteSpace=wrap;html=1;fillColor=#e1d5e7;strokeColor=#9673a6;" parent="rZPklnPWn8Zfk5MZy2Hi-396" vertex="1">
          <mxGeometry x="113" y="90" width="50" height="40" as="geometry" />
        </mxCell>
        <mxCell id="rZPklnPWn8Zfk5MZy2Hi-374" style="edgeStyle=orthogonalEdgeStyle;rounded=0;orthogonalLoop=1;jettySize=auto;html=1;entryX=0;entryY=0.5;entryDx=0;entryDy=0;" parent="rZPklnPWn8Zfk5MZy2Hi-396" target="rZPklnPWn8Zfk5MZy2Hi-379" edge="1">
          <mxGeometry relative="1" as="geometry">
            <mxPoint x="298" y="78" as="sourcePoint" />
          </mxGeometry>
        </mxCell>
        <mxCell id="rZPklnPWn8Zfk5MZy2Hi-375" style="edgeStyle=orthogonalEdgeStyle;rounded=0;orthogonalLoop=1;jettySize=auto;html=1;exitX=0.5;exitY=0;exitDx=0;exitDy=0;entryX=0.5;entryY=1;entryDx=0;entryDy=0;" parent="rZPklnPWn8Zfk5MZy2Hi-396" source="rZPklnPWn8Zfk5MZy2Hi-376" target="rZPklnPWn8Zfk5MZy2Hi-385" edge="1">
          <mxGeometry relative="1" as="geometry" />
        </mxCell>
        <mxCell id="rZPklnPWn8Zfk5MZy2Hi-376" value="A" style="rounded=0;whiteSpace=wrap;html=1;fillColor=#e1d5e7;strokeColor=#9673a6;" parent="rZPklnPWn8Zfk5MZy2Hi-396" vertex="1">
          <mxGeometry x="273" y="90" width="50" height="40" as="geometry" />
        </mxCell>
        <mxCell id="rZPklnPWn8Zfk5MZy2Hi-377" style="edgeStyle=orthogonalEdgeStyle;rounded=0;orthogonalLoop=1;jettySize=auto;html=1;exitX=1;exitY=0.5;exitDx=0;exitDy=0;entryX=0;entryY=0.5;entryDx=0;entryDy=0;" parent="rZPklnPWn8Zfk5MZy2Hi-396" source="rZPklnPWn8Zfk5MZy2Hi-379" target="rZPklnPWn8Zfk5MZy2Hi-381" edge="1">
          <mxGeometry relative="1" as="geometry">
            <Array as="points">
              <mxPoint x="457" y="110" />
              <mxPoint x="457" y="78" />
              <mxPoint x="592" y="78" />
              <mxPoint x="592" y="110" />
            </Array>
          </mxGeometry>
        </mxCell>
        <mxCell id="rZPklnPWn8Zfk5MZy2Hi-378" style="edgeStyle=orthogonalEdgeStyle;rounded=0;orthogonalLoop=1;jettySize=auto;html=1;exitX=0.5;exitY=0;exitDx=0;exitDy=0;entryX=0.5;entryY=1;entryDx=0;entryDy=0;" parent="rZPklnPWn8Zfk5MZy2Hi-396" source="rZPklnPWn8Zfk5MZy2Hi-379" target="rZPklnPWn8Zfk5MZy2Hi-386" edge="1">
          <mxGeometry relative="1" as="geometry" />
        </mxCell>
        <mxCell id="rZPklnPWn8Zfk5MZy2Hi-379" value="A" style="rounded=0;whiteSpace=wrap;html=1;fillColor=#e1d5e7;strokeColor=#9673a6;" parent="rZPklnPWn8Zfk5MZy2Hi-396" vertex="1">
          <mxGeometry x="432" y="90" width="50" height="40" as="geometry" />
        </mxCell>
        <mxCell id="rZPklnPWn8Zfk5MZy2Hi-380" style="edgeStyle=orthogonalEdgeStyle;rounded=0;orthogonalLoop=1;jettySize=auto;html=1;exitX=0.5;exitY=0;exitDx=0;exitDy=0;entryX=0.5;entryY=1;entryDx=0;entryDy=0;" parent="rZPklnPWn8Zfk5MZy2Hi-396" source="rZPklnPWn8Zfk5MZy2Hi-381" target="rZPklnPWn8Zfk5MZy2Hi-387" edge="1">
          <mxGeometry relative="1" as="geometry" />
        </mxCell>
        <mxCell id="rZPklnPWn8Zfk5MZy2Hi-381" value="A" style="rounded=0;whiteSpace=wrap;html=1;fillColor=#e1d5e7;strokeColor=#9673a6;" parent="rZPklnPWn8Zfk5MZy2Hi-396" vertex="1">
          <mxGeometry x="701" y="90" width="50" height="40" as="geometry" />
        </mxCell>
        <mxCell id="rZPklnPWn8Zfk5MZy2Hi-382" style="edgeStyle=orthogonalEdgeStyle;rounded=0;orthogonalLoop=1;jettySize=auto;html=1;exitX=1;exitY=0.5;exitDx=0;exitDy=0;entryX=0;entryY=0.5;entryDx=0;entryDy=0;" parent="rZPklnPWn8Zfk5MZy2Hi-396" source="rZPklnPWn8Zfk5MZy2Hi-383" target="rZPklnPWn8Zfk5MZy2Hi-373" edge="1">
          <mxGeometry relative="1" as="geometry" />
        </mxCell>
        <mxCell id="rZPklnPWn8Zfk5MZy2Hi-383" value="h&lt;sub&gt;0&lt;/sub&gt;" style="ellipse;whiteSpace=wrap;html=1;aspect=fixed;" parent="rZPklnPWn8Zfk5MZy2Hi-396" vertex="1">
          <mxGeometry x="47.10000000000002" y="97" width="26" height="26" as="geometry" />
        </mxCell>
        <mxCell id="rZPklnPWn8Zfk5MZy2Hi-384" value="h&lt;span style=&quot;font-size: 10px;&quot;&gt;1&lt;/span&gt;" style="ellipse;whiteSpace=wrap;html=1;aspect=fixed;" parent="rZPklnPWn8Zfk5MZy2Hi-396" vertex="1">
          <mxGeometry x="125" y="40" width="26" height="26" as="geometry" />
        </mxCell>
        <mxCell id="rZPklnPWn8Zfk5MZy2Hi-385" value="h&lt;span style=&quot;font-size: 10px;&quot;&gt;2&lt;/span&gt;" style="ellipse;whiteSpace=wrap;html=1;aspect=fixed;" parent="rZPklnPWn8Zfk5MZy2Hi-396" vertex="1">
          <mxGeometry x="285" y="40" width="26" height="26" as="geometry" />
        </mxCell>
        <mxCell id="rZPklnPWn8Zfk5MZy2Hi-386" value="h&lt;span style=&quot;font-size: 10px;&quot;&gt;3&lt;/span&gt;" style="ellipse;whiteSpace=wrap;html=1;aspect=fixed;" parent="rZPklnPWn8Zfk5MZy2Hi-396" vertex="1">
          <mxGeometry x="444" y="40" width="26" height="26" as="geometry" />
        </mxCell>
        <mxCell id="rZPklnPWn8Zfk5MZy2Hi-387" value="h&lt;span style=&quot;font-size: 10px;&quot;&gt;n&lt;/span&gt;" style="ellipse;whiteSpace=wrap;html=1;aspect=fixed;" parent="rZPklnPWn8Zfk5MZy2Hi-396" vertex="1">
          <mxGeometry x="715" y="40" width="26" height="26" as="geometry" />
        </mxCell>
        <mxCell id="rZPklnPWn8Zfk5MZy2Hi-388" style="edgeStyle=orthogonalEdgeStyle;rounded=0;orthogonalLoop=1;jettySize=auto;html=1;exitX=0.5;exitY=0;exitDx=0;exitDy=0;entryX=0.5;entryY=1;entryDx=0;entryDy=0;" parent="rZPklnPWn8Zfk5MZy2Hi-396" source="rZPklnPWn8Zfk5MZy2Hi-389" target="rZPklnPWn8Zfk5MZy2Hi-373" edge="1">
          <mxGeometry relative="1" as="geometry" />
        </mxCell>
        <mxCell id="rZPklnPWn8Zfk5MZy2Hi-389" value="" style="whiteSpace=wrap;html=1;aspect=fixed;fillColor=#ffe6cc;strokeColor=#d79b00;" parent="rZPklnPWn8Zfk5MZy2Hi-396" vertex="1">
          <mxGeometry x="127.90193548387094" y="160.00451612903225" width="20.193548387096776" height="20.193548387096776" as="geometry" />
        </mxCell>
        <mxCell id="rZPklnPWn8Zfk5MZy2Hi-390" style="edgeStyle=orthogonalEdgeStyle;rounded=0;orthogonalLoop=1;jettySize=auto;html=1;exitX=0.5;exitY=0;exitDx=0;exitDy=0;entryX=0.5;entryY=1;entryDx=0;entryDy=0;" parent="rZPklnPWn8Zfk5MZy2Hi-396" source="rZPklnPWn8Zfk5MZy2Hi-391" target="rZPklnPWn8Zfk5MZy2Hi-376" edge="1">
          <mxGeometry relative="1" as="geometry" />
        </mxCell>
        <mxCell id="rZPklnPWn8Zfk5MZy2Hi-391" value="" style="whiteSpace=wrap;html=1;aspect=fixed;" parent="rZPklnPWn8Zfk5MZy2Hi-396" vertex="1">
          <mxGeometry x="287.90193548387094" y="160.00451612903225" width="20.193548387096776" height="20.193548387096776" as="geometry" />
        </mxCell>
        <mxCell id="rZPklnPWn8Zfk5MZy2Hi-392" style="edgeStyle=orthogonalEdgeStyle;rounded=0;orthogonalLoop=1;jettySize=auto;html=1;exitX=0.5;exitY=0;exitDx=0;exitDy=0;entryX=0.5;entryY=1;entryDx=0;entryDy=0;" parent="rZPklnPWn8Zfk5MZy2Hi-396" source="rZPklnPWn8Zfk5MZy2Hi-393" target="rZPklnPWn8Zfk5MZy2Hi-379" edge="1">
          <mxGeometry relative="1" as="geometry" />
        </mxCell>
        <mxCell id="rZPklnPWn8Zfk5MZy2Hi-393" value="" style="whiteSpace=wrap;html=1;aspect=fixed;fillColor=#ffe6cc;strokeColor=#d79b00;" parent="rZPklnPWn8Zfk5MZy2Hi-396" vertex="1">
          <mxGeometry x="447.90193548387094" y="160.00451612903225" width="20.193548387096776" height="20.193548387096776" as="geometry" />
        </mxCell>
        <mxCell id="rZPklnPWn8Zfk5MZy2Hi-394" style="edgeStyle=orthogonalEdgeStyle;rounded=0;orthogonalLoop=1;jettySize=auto;html=1;exitX=0.5;exitY=0;exitDx=0;exitDy=0;entryX=0.5;entryY=1;entryDx=0;entryDy=0;" parent="rZPklnPWn8Zfk5MZy2Hi-396" source="rZPklnPWn8Zfk5MZy2Hi-395" target="rZPklnPWn8Zfk5MZy2Hi-381" edge="1">
          <mxGeometry relative="1" as="geometry" />
        </mxCell>
        <mxCell id="rZPklnPWn8Zfk5MZy2Hi-395" value="" style="whiteSpace=wrap;html=1;aspect=fixed;" parent="rZPklnPWn8Zfk5MZy2Hi-396" vertex="1">
          <mxGeometry x="715.901935483871" y="160.00451612903225" width="20.193548387096776" height="20.193548387096776" as="geometry" />
        </mxCell>
        <mxCell id="rZPklnPWn8Zfk5MZy2Hi-425" value="Group Cognition Module" style="text;html=1;align=center;verticalAlign=middle;whiteSpace=wrap;rounded=0;" parent="rZPklnPWn8Zfk5MZy2Hi-396" vertex="1">
          <mxGeometry x="250" width="277" height="30" as="geometry" />
        </mxCell>
        <mxCell id="rZPklnPWn8Zfk5MZy2Hi-428" value="L&lt;sub&gt;seq&lt;/sub&gt;" style="text;html=1;align=center;verticalAlign=middle;whiteSpace=wrap;rounded=0;" parent="rZPklnPWn8Zfk5MZy2Hi-396" vertex="1">
          <mxGeometry x="695.9" y="190" width="60" height="30" as="geometry" />
        </mxCell>
        <mxCell id="rZPklnPWn8Zfk5MZy2Hi-397" value="" style="group" parent="1" vertex="1" connectable="0">
          <mxGeometry x="343" y="533" width="316" height="190" as="geometry" />
        </mxCell>
        <mxCell id="rZPklnPWn8Zfk5MZy2Hi-200" value="" style="rounded=0;whiteSpace=wrap;html=1;fillColor=#f5f5f5;fontColor=#333333;strokeColor=#666666;" parent="rZPklnPWn8Zfk5MZy2Hi-397" vertex="1">
          <mxGeometry width="316" height="190" as="geometry" />
        </mxCell>
        <mxCell id="rZPklnPWn8Zfk5MZy2Hi-201" value="Cognitive Bias Auxiliary Module" style="text;html=1;align=center;verticalAlign=middle;whiteSpace=wrap;rounded=0;" parent="rZPklnPWn8Zfk5MZy2Hi-397" vertex="1">
          <mxGeometry x="63" width="194" height="30" as="geometry" />
        </mxCell>
        <mxCell id="rZPklnPWn8Zfk5MZy2Hi-203" value="" style="whiteSpace=wrap;html=1;aspect=fixed;fillColor=#ffe6cc;strokeColor=#d79b00;" parent="rZPklnPWn8Zfk5MZy2Hi-397" vertex="1">
          <mxGeometry x="107.00193548387097" y="50.19451612903231" width="20.193548387096776" height="20.193548387096776" as="geometry" />
        </mxCell>
        <mxCell id="rZPklnPWn8Zfk5MZy2Hi-207" value="" style="whiteSpace=wrap;html=1;aspect=fixed;fillColor=#ffe6cc;strokeColor=#d79b00;" parent="rZPklnPWn8Zfk5MZy2Hi-397" vertex="1">
          <mxGeometry x="187.00193548387097" y="50.19451612903231" width="20.193548387096776" height="20.193548387096776" as="geometry" />
        </mxCell>
        <mxCell id="rZPklnPWn8Zfk5MZy2Hi-212" value="&lt;font style=&quot;font-size: 9px;&quot;&gt;Pull&lt;/font&gt;" style="text;html=1;align=center;verticalAlign=middle;whiteSpace=wrap;rounded=0;" parent="rZPklnPWn8Zfk5MZy2Hi-397" vertex="1">
          <mxGeometry x="127" y="44.200000000000045" width="60" height="30" as="geometry" />
        </mxCell>
        <mxCell id="rZPklnPWn8Zfk5MZy2Hi-213" value="" style="whiteSpace=wrap;html=1;aspect=fixed;fillColor=#ffe6cc;strokeColor=#d79b00;" parent="rZPklnPWn8Zfk5MZy2Hi-397" vertex="1">
          <mxGeometry x="106.80193548387098" y="101.80451612903232" width="20.193548387096776" height="20.193548387096776" as="geometry" />
        </mxCell>
        <mxCell id="rZPklnPWn8Zfk5MZy2Hi-216" value="" style="whiteSpace=wrap;html=1;aspect=fixed;" parent="rZPklnPWn8Zfk5MZy2Hi-397" vertex="1">
          <mxGeometry x="187.00193548387097" y="101.80451612903232" width="20.193548387096776" height="20.193548387096776" as="geometry" />
        </mxCell>
        <mxCell id="rZPklnPWn8Zfk5MZy2Hi-217" value="&lt;font style=&quot;font-size: 9px;&quot;&gt;Away&lt;/font&gt;" style="text;html=1;align=center;verticalAlign=middle;whiteSpace=wrap;rounded=0;" parent="rZPklnPWn8Zfk5MZy2Hi-397" vertex="1">
          <mxGeometry x="127" y="98" width="60" height="30" as="geometry" />
        </mxCell>
        <mxCell id="rZPklnPWn8Zfk5MZy2Hi-218" value="" style="whiteSpace=wrap;html=1;aspect=fixed;fillColor=#ffe6cc;strokeColor=#d79b00;" parent="rZPklnPWn8Zfk5MZy2Hi-397" vertex="1">
          <mxGeometry x="227.00193548387097" y="137.00451612903225" width="20.193548387096776" height="20.193548387096776" as="geometry" />
        </mxCell>
        <mxCell id="rZPklnPWn8Zfk5MZy2Hi-219" value="&lt;font style=&quot;font-size: 9px;&quot;&gt;Support&lt;/font&gt;" style="text;html=1;align=center;verticalAlign=middle;whiteSpace=wrap;rounded=0;" parent="rZPklnPWn8Zfk5MZy2Hi-397" vertex="1">
          <mxGeometry x="254" y="132" width="60" height="30" as="geometry" />
        </mxCell>
        <mxCell id="rZPklnPWn8Zfk5MZy2Hi-220" value="" style="whiteSpace=wrap;html=1;aspect=fixed;" parent="rZPklnPWn8Zfk5MZy2Hi-397" vertex="1">
          <mxGeometry x="227.00193548387097" y="162.00451612903237" width="20.193548387096776" height="20.193548387096776" as="geometry" />
        </mxCell>
        <mxCell id="rZPklnPWn8Zfk5MZy2Hi-221" value="&lt;font style=&quot;font-size: 9px;&quot;&gt;Oppose&lt;/font&gt;" style="text;html=1;align=center;verticalAlign=middle;whiteSpace=wrap;rounded=0;" parent="rZPklnPWn8Zfk5MZy2Hi-397" vertex="1">
          <mxGeometry x="254" y="157.20000000000005" width="60" height="30" as="geometry" />
        </mxCell>
        <mxCell id="rZPklnPWn8Zfk5MZy2Hi-423" value="" style="rounded=0;orthogonalLoop=1;jettySize=auto;html=1;" parent="1" edge="1">
          <mxGeometry relative="1" as="geometry">
            <mxPoint x="300" y="660" as="sourcePoint" />
            <mxPoint x="299" y="773" as="targetPoint" />
          </mxGeometry>
        </mxCell>
        <mxCell id="rZPklnPWn8Zfk5MZy2Hi-427" value="" style="rounded=0;orthogonalLoop=1;jettySize=auto;html=1;exitX=1;exitY=0.75;exitDx=0;exitDy=0;" parent="1" edge="1">
          <mxGeometry relative="1" as="geometry">
            <mxPoint x="921.258064516129" y="976.2548387096774" as="sourcePoint" />
            <mxPoint x="943.6806451612903" y="976.2548387096774" as="targetPoint" />
          </mxGeometry>
        </mxCell>
        <mxCell id="rZPklnPWn8Zfk5MZy2Hi-444" style="edgeStyle=orthogonalEdgeStyle;rounded=0;orthogonalLoop=1;jettySize=auto;html=1;exitX=1;exitY=0.5;exitDx=0;exitDy=0;" parent="1" source="rZPklnPWn8Zfk5MZy2Hi-429" edge="1">
          <mxGeometry relative="1" as="geometry">
            <mxPoint x="1240" y="620" as="targetPoint" />
          </mxGeometry>
        </mxCell>
        <mxCell id="rZPklnPWn8Zfk5MZy2Hi-429" value="Fusion &amp;amp; Classfier" style="rounded=0;whiteSpace=wrap;html=1;" parent="1" vertex="1">
          <mxGeometry x="1090" y="589" width="120" height="61" as="geometry" />
        </mxCell>
        <mxCell id="rZPklnPWn8Zfk5MZy2Hi-441" style="edgeStyle=orthogonalEdgeStyle;rounded=0;orthogonalLoop=1;jettySize=auto;html=1;exitX=1;exitY=0.5;exitDx=0;exitDy=0;entryX=0;entryY=0.5;entryDx=0;entryDy=0;" parent="1" source="rZPklnPWn8Zfk5MZy2Hi-387" target="rZPklnPWn8Zfk5MZy2Hi-429" edge="1">
          <mxGeometry relative="1" as="geometry" />
        </mxCell>
        <mxCell id="rZPklnPWn8Zfk5MZy2Hi-445" value="L&lt;sub&gt;cls&lt;/sub&gt;" style="text;html=1;align=center;verticalAlign=middle;whiteSpace=wrap;rounded=0;" parent="1" vertex="1">
          <mxGeometry x="1230" y="607.2" width="60" height="30" as="geometry" />
        </mxCell>
      </root>
    </mxGraphModel>
  </diagram>
</mxfile>
